<mxfile host="app.diagrams.net" modified="2023-02-07T08:24:30.627Z" agent="5.0 (Windows NT 10.0; Win64; x64) AppleWebKit/537.36 (KHTML, like Gecko) Chrome/101.0.0.0 Safari/537.36" version="20.8.5" etag="X1qEQw96EOffhTnm6mSu" type="github">
  <diagram id="fTKirqQbMeEnvB2VF1BK" name="第 1 页">
    <mxGraphModel dx="1354" dy="635" grid="1" gridSize="10" guides="1" tooltips="1" connect="1" arrows="1" fold="1" page="1" pageScale="1" pageWidth="827" pageHeight="1169" math="0" shadow="0">
      <root>
        <mxCell id="0" />
        <mxCell id="1" parent="0" />
        <mxCell id="TF3U4BP2Qi4c9sMt0I1z-1" value="" style="edgeStyle=orthogonalEdgeStyle;rounded=0;orthogonalLoop=1;jettySize=auto;html=1;" edge="1" parent="1" source="TF3U4BP2Qi4c9sMt0I1z-2" target="TF3U4BP2Qi4c9sMt0I1z-4">
          <mxGeometry relative="1" as="geometry" />
        </mxCell>
        <mxCell id="TF3U4BP2Qi4c9sMt0I1z-2" value="开始" style="strokeWidth=2;html=1;shape=mxgraph.flowchart.start_1;whiteSpace=wrap;" vertex="1" parent="1">
          <mxGeometry x="190" y="50" width="100" height="60" as="geometry" />
        </mxCell>
        <mxCell id="TF3U4BP2Qi4c9sMt0I1z-3" value="" style="edgeStyle=orthogonalEdgeStyle;rounded=0;orthogonalLoop=1;jettySize=auto;html=1;" edge="1" parent="1" source="TF3U4BP2Qi4c9sMt0I1z-4" target="TF3U4BP2Qi4c9sMt0I1z-6">
          <mxGeometry relative="1" as="geometry" />
        </mxCell>
        <mxCell id="TF3U4BP2Qi4c9sMt0I1z-4" value="参数校验" style="rounded=1;whiteSpace=wrap;html=1;absoluteArcSize=1;arcSize=14;strokeWidth=2;" vertex="1" parent="1">
          <mxGeometry x="190" y="160" width="100" height="50" as="geometry" />
        </mxCell>
        <mxCell id="TF3U4BP2Qi4c9sMt0I1z-5" value="" style="edgeStyle=orthogonalEdgeStyle;rounded=0;orthogonalLoop=1;jettySize=auto;html=1;" edge="1" parent="1" source="TF3U4BP2Qi4c9sMt0I1z-6" target="TF3U4BP2Qi4c9sMt0I1z-8">
          <mxGeometry relative="1" as="geometry" />
        </mxCell>
        <mxCell id="TF3U4BP2Qi4c9sMt0I1z-6" value="修改基本信息表状态为已下架" style="rounded=1;whiteSpace=wrap;html=1;absoluteArcSize=1;arcSize=14;strokeWidth=2;" vertex="1" parent="1">
          <mxGeometry x="190" y="260" width="100" height="50" as="geometry" />
        </mxCell>
        <mxCell id="TF3U4BP2Qi4c9sMt0I1z-7" value="" style="edgeStyle=orthogonalEdgeStyle;rounded=0;orthogonalLoop=1;jettySize=auto;html=1;" edge="1" parent="1" source="TF3U4BP2Qi4c9sMt0I1z-8" target="TF3U4BP2Qi4c9sMt0I1z-10">
          <mxGeometry relative="1" as="geometry" />
        </mxCell>
        <mxCell id="TF3U4BP2Qi4c9sMt0I1z-8" value="删除共享参数表的共享参数" style="rounded=1;whiteSpace=wrap;html=1;absoluteArcSize=1;arcSize=14;strokeWidth=2;" vertex="1" parent="1">
          <mxGeometry x="190" y="350" width="100" height="50" as="geometry" />
        </mxCell>
        <mxCell id="TF3U4BP2Qi4c9sMt0I1z-9" value="" style="edgeStyle=orthogonalEdgeStyle;rounded=0;orthogonalLoop=1;jettySize=auto;html=1;" edge="1" parent="1" source="TF3U4BP2Qi4c9sMt0I1z-10" target="TF3U4BP2Qi4c9sMt0I1z-11">
          <mxGeometry relative="1" as="geometry" />
        </mxCell>
        <mxCell id="TF3U4BP2Qi4c9sMt0I1z-10" value="删除任务" style="rounded=1;whiteSpace=wrap;html=1;absoluteArcSize=1;arcSize=14;strokeWidth=2;" vertex="1" parent="1">
          <mxGeometry x="190" y="450" width="100" height="50" as="geometry" />
        </mxCell>
        <mxCell id="TF3U4BP2Qi4c9sMt0I1z-11" value="结束" style="strokeWidth=2;html=1;shape=mxgraph.flowchart.terminator;whiteSpace=wrap;" vertex="1" parent="1">
          <mxGeometry x="190" y="540" width="100" height="60" as="geometry" />
        </mxCell>
      </root>
    </mxGraphModel>
  </diagram>
</mxfile>
